<svg height="512pt" viewBox="0 0 512.00002 512" width="512pt" xmlns="http://www.w3.org/2000/svg"><path d="m102.398438 312.914062c-28.230469 0-51.199219 22.96875-51.199219 51.199219v101.300781h102.402343v-101.300781c0-28.234375-22.96875-51.199219-51.203124-51.199219zm0 0" fill="#fb983b"/><path d="m204.800781 312.914062c-28.234375 0-51.199219 22.96875-51.199219 51.199219v101.300781h102.398438v-101.300781c0-28.234375-22.96875-51.199219-51.199219-51.199219zm0 0" fill="#fb983b"/><path d="m307.199219 312.914062c-28.230469 0-51.199219 22.96875-51.199219 51.199219v101.300781h102.398438v-101.300781c0-28.234375-22.964844-51.199219-51.199219-51.199219zm0 0" fill="#f75139"/><path d="m409.601562 312.914062c-28.234374 0-51.203124 22.96875-51.203124 51.199219v101.300781h102.402343v-101.300781c0-28.234375-22.96875-51.199219-51.199219-51.199219zm0 0" fill="#f75139"/><path d="m0 0h512v261.773438h-512zm0 0" fill="#fff6d7"/><path d="m316.996094 81.378906c-13.671875-16.292968-32.871094-26.289062-54.0625-28.140625-21.191406-1.855469-41.832032 4.65625-58.125 18.328125-16.292969 13.675782-26.285156 32.875-28.136719 54.066406-1.855469 21.1875 4.65625 41.832032 18.328125 58.125 13.675781 16.292969 32.875 26.285157 54.0625 28.136719 2.367188.207031 4.726562.3125 7.074219.308594 18.671875 0 36.578125-6.492187 51.054687-18.636719 16.292969-13.675781 26.285156-32.875 28.136719-54.0625 1.855469-21.191406-4.65625-41.832031-18.332031-58.125zm0 0" fill="#fb983b"/><path d="m242.675781 164.609375v-64.085937l48.589844 32.042968zm0 0" fill="#f75139"/><path d="m255.667969 0h256.332031v261.773438h-256.332031zm0 0" fill="#fee2bc"/><g fill="#f75139"><path d="m51.199219 389.5c-28.230469 0-51.199219 22.96875-51.199219 51.199219v71.300781h102.398438v-71.300781c0-28.230469-22.964844-51.199219-51.199219-51.199219zm0 0"/><path d="m153.601562 389.5c-28.234374 0-51.203124 22.96875-51.203124 51.199219v71.300781h102.402343v-71.300781c0-28.230469-22.96875-51.199219-51.199219-51.199219zm0 0"/><path d="m256 389.5c-28.230469 0-51.199219 22.96875-51.199219 51.199219v71.300781h102.398438v-71.300781c0-28.230469-22.96875-51.199219-51.199219-51.199219zm0 0"/><path d="m358.398438 389.5c-28.230469 0-51.199219 22.96875-51.199219 51.199219v71.300781h102.402343v-71.300781c0-28.230469-22.96875-51.199219-51.203124-51.199219zm0 0"/><path d="m460.800781 389.5c-28.234375 0-51.199219 22.96875-51.199219 51.199219v71.300781h102.398438v-71.300781c0-28.230469-22.96875-51.199219-51.199219-51.199219zm0 0"/></g><path d="m358.398438 389.5c-28.230469 0-51.199219 22.96875-51.199219 51.199219v71.300781h102.402343v-71.300781c0-28.230469-22.96875-51.199219-51.203124-51.199219zm0 0" fill="#c50c1c"/><path d="m460.800781 389.5c-28.234375 0-51.199219 22.96875-51.199219 51.199219v71.300781h102.398438v-71.300781c0-28.230469-22.96875-51.199219-51.199219-51.199219zm0 0" fill="#c50c1c"/><path d="m307.199219 440.699219c0-28.230469-22.96875-51.199219-51.199219-51.199219v122.5h51.199219zm0 0" fill="#c50c1c"/><path d="m316.996094 81.378906c-13.671875-16.292968-32.871094-26.289062-54.0625-28.140625-21.191406-1.855469-41.832032 4.65625-58.125 18.328125-16.292969 13.675782-26.285156 32.875-28.136719 54.066406-1.855469 21.1875 4.65625 41.832032 18.328125 58.125 13.675781 16.292969 32.875 26.285157 54.0625 28.136719 2.367188.207031 4.726562.3125 7.074219.308594 18.671875 0 36.578125-6.492187 51.054687-18.636719 16.292969-13.675781 26.285156-32.875 28.136719-54.0625 1.855469-21.191406-4.65625-41.832031-18.332031-58.125zm0 0" fill="#fed330"/><path d="m316.996094 81.378906c-13.671875-16.292968-32.871094-26.289062-54.0625-28.140625-2.429688-.214843-4.855469-.304687-7.269532-.296875v159.253906c.15625 0 .316407.007813.472657.007813 18.671875 0 36.578125-6.492187 51.054687-18.640625 16.292969-13.671875 26.285156-32.871094 28.136719-54.0625 1.855469-21.1875-4.65625-41.828125-18.332031-58.121094zm0 0" fill="#fb983b"/><path d="m242.675781 164.609375v-64.085937l48.589844 32.042968zm0 0" fill="#f75139"/><path d="m255.667969 109.09375v46.949219l35.597656-23.476563zm0 0" fill="#c50c1c"/></svg>