<svg height="512pt" viewBox="0 0 512 512" width="512pt" xmlns="http://www.w3.org/2000/svg"><path d="m512 121h-46v120h-90v-120h-45l90-121zm0 0" fill="#ff637b"/><path d="m121 391v60l-30 30h-61l-30-30v-60zm0 0" fill="#ffda2d"/><path d="m121 391v60l-30 30h-30v-90zm0 0" fill="#fdbf00"/><path d="m0 451h121v61h-121zm0 0" fill="#fdbf00"/><path d="m61 451h60v61h-60zm0 0" fill="#ff9100"/><path d="m512 271v60l-31 30h-120l-30-30v-60zm0 0" fill="#ffda2d"/><path d="m512 271v60l-31 30h-60v-90zm0 0" fill="#fdbf00"/><path d="m512 331v60l-31 30h-120l-30-30v-60zm0 0" fill="#fdbf00"/><path d="m512 331v60l-31 30h-60v-90zm0 0" fill="#ff9100"/><path d="m512 391v60l-31 30h-120l-30-30v-60zm0 0" fill="#ffda2d"/><path d="m512 391v60l-31 30h-60v-90zm0 0" fill="#fdbf00"/><path d="m331 451h181v61h-181zm0 0" fill="#fdbf00"/><path d="m421 451h91v61h-91zm0 0" fill="#ff9100"/><path d="m301 331v60l-30 30h-90l-30-30v-60zm0 0" fill="#fdbf00"/><path d="m301 331v60l-30 30h-45v-90zm0 0" fill="#ff9100"/><path d="m301 391v60l-30 30h-90l-30-30v-60zm0 0" fill="#ffda2d"/><path d="m301 391v60l-30 30h-45v-90zm0 0" fill="#fdbf00"/><path d="m151 451h150v61h-150zm0 0" fill="#fdbf00"/><path d="m226 451h75v61h-75zm0 0" fill="#ff9100"/><path d="m512 121h-46v120h-45v-241zm0 0" fill="#e63950"/></svg>