<svg height="512pt" viewBox="-31 0 512 512" width="512pt" xmlns="http://www.w3.org/2000/svg"><path d="m450 0v512h-150l-30-47.5v-433.25l30-31.25zm0 0" fill="#64e1dc"/><path d="m375 0h75v512h-75zm0 0" fill="#00c8c8"/><path d="m375 361c-24.902344 0-45 20.097656-45 45 0 24.898438 20.097656 45 45 45s45-20.101562 45-45c0-24.902344-20.097656-45-45-45zm0 0" fill="#ececf1"/><path d="m345 271h60v30h-60zm0 0" fill="#537983"/><path d="m345 211h60v30h-60zm0 0" fill="#537983"/><path d="m345 151h60v30h-60zm0 0" fill="#537983"/><path d="m345 91h60v30h-60zm0 0" fill="#537983"/><path d="m420 406c0 24.898438-20.097656 45-45 45v-90c24.902344 0 45 20.097656 45 45zm0 0" fill="#d3d3d8"/><path d="m375 421c-8.269531 0-15-6.730469-15-15s6.730469-15 15-15 15 6.730469 15 15-6.730469 15-15 15zm0 0" fill="#537983"/><g fill="#3e5959"><path d="m390 406c0-8.269531-6.730469-15-15-15v30c8.269531 0 15-6.730469 15-15zm0 0"/><path d="m375 91h30v30h-30zm0 0"/><path d="m375 151h30v30h-30zm0 0"/><path d="m375 211h30v30h-30zm0 0"/><path d="m375 271h30v30h-30zm0 0"/></g><path d="m300 0v512h-150l-30-47.5v-433.25l30-31.25zm0 0" fill="#ff637b"/><path d="m225 0h75v512h-75zm0 0" fill="#e63950"/><path d="m225 361c-24.902344 0-45 20.097656-45 45 0 24.898438 20.097656 45 45 45s45-20.101562 45-45c0-24.902344-20.097656-45-45-45zm0 0" fill="#ececf1"/><path d="m195 271h60v30h-60zm0 0" fill="#537983"/><path d="m195 211h60v30h-60zm0 0" fill="#537983"/><path d="m195 151h60v30h-60zm0 0" fill="#537983"/><path d="m195 91h60v30h-60zm0 0" fill="#537983"/><path d="m270 406c0 24.898438-20.097656 45-45 45v-90c24.902344 0 45 20.097656 45 45zm0 0" fill="#d3d3d8"/><path d="m225 421c-8.269531 0-15-6.730469-15-15s6.730469-15 15-15 15 6.730469 15 15-6.730469 15-15 15zm0 0" fill="#537983"/><path d="m240 406c0-8.269531-6.730469-15-15-15v30c8.269531 0 15-6.730469 15-15zm0 0" fill="#3e5959"/><path d="m225 91h30v30h-30zm0 0" fill="#3e5959"/><path d="m225 151h30v30h-30zm0 0" fill="#3e5959"/><path d="m225 211h30v30h-30zm0 0" fill="#3e5959"/><path d="m225 271h30v30h-30zm0 0" fill="#3e5959"/><path d="m0 0h150v512h-150zm0 0" fill="#c3ea21"/><path d="m75 0h75v512h-75zm0 0" fill="#9cdd05"/><path d="m75 361c-24.902344 0-45 20.097656-45 45 0 24.898438 20.097656 45 45 45s45-20.101562 45-45c0-24.902344-20.097656-45-45-45zm0 0" fill="#ececf1"/><path d="m45 271h60v30h-60zm0 0" fill="#537983"/><path d="m45 211h60v30h-60zm0 0" fill="#537983"/><path d="m45 151h60v30h-60zm0 0" fill="#537983"/><path d="m45 91h60v30h-60zm0 0" fill="#537983"/><path d="m120 406c0 24.898438-20.097656 45-45 45v-90c24.902344 0 45 20.097656 45 45zm0 0" fill="#d3d3d8"/><path d="m75 421c-8.269531 0-15-6.730469-15-15s6.730469-15 15-15 15 6.730469 15 15-6.730469 15-15 15zm0 0" fill="#537983"/><path d="m90 406c0-8.269531-6.730469-15-15-15v30c8.269531 0 15-6.730469 15-15zm0 0" fill="#3e5959"/><path d="m75 91h30v30h-30zm0 0" fill="#3e5959"/><path d="m75 151h30v30h-30zm0 0" fill="#3e5959"/><path d="m75 211h30v30h-30zm0 0" fill="#3e5959"/><path d="m75 271h30v30h-30zm0 0" fill="#3e5959"/></svg>