<svg height="512pt" viewBox="0 -31 512 512" width="512pt" xmlns="http://www.w3.org/2000/svg"><path d="m271 0-120 120v30l-30 99.375 30 170.625v30h361v-450zm0 0" fill="#ececf1"/><path d="m331 0h181v450h-181zm0 0" fill="#d3d3d8"/><path d="m421 195c0 19.5-12.597656 36-30 42.300781v32.699219h-30v-32.699219c-17.402344-6.300781-30-22.800781-30-42.300781h30c0 8.402344 6.597656 15 15 15s15-6.597656 15-15-6.597656-15-15-15c-24.902344 0-45-20.097656-45-45 0-19.5 12.597656-36 30-42.300781v-32.699219h30v32.699219c17.402344 6.300781 30 22.800781 30 42.300781h-30c0-8.402344-6.597656-15-15-15s-15 6.597656-15 15 6.597656 15 15 15c24.902344 0 45 20.097656 45 45zm0 0" fill="#3e5959"/><g fill="#d3d3d8"><path d="m271 0h-21.210938l-98.789062 98.789062v21.210938h120zm0 0"/><path d="m271 300h181v30h-181zm0 0"/><path d="m271 360h181v30h-181zm0 0"/></g><path d="m288.066406 251.777344c-19.511718-15.835938-47.65625-15.867188-67.355468.953125l-69.710938 66.363281v-169.09375h-30l-82.5 90h-38.5v180h162.601562l138.398438-157.734375zm0 0" fill="#ffcebf"/><path d="m331 300h121v30h-121zm0 0" fill="#babac0"/><path d="m331 360h121v30h-121zm0 0" fill="#babac0"/></svg>