<svg height="512pt" viewBox="0 0 512 512" width="512pt" xmlns="http://www.w3.org/2000/svg"><path d="m121 272v60l-45 29.398438-.902344.601562-44.097656-30v-60zm0 0" fill="#ff637b"/><path d="m121 272v60l-45 29.398438v-89.398438zm0 0" fill="#e63950"/><path d="m31 332h90v165h-90zm0 0" fill="#64e1dc"/><path d="m76 332h45v165h-45zm0 0" fill="#00c8c8"/><path d="m241 181v181l-45 29.398438-.902344.601562-44.097656-30v-181zm0 0" fill="#ff637b"/><path d="m241 181v181l-45 29.398438v-210.398438zm0 0" fill="#e63950"/><path d="m151 362h90v135h-90zm0 0" fill="#64e1dc"/><path d="m196 362h45v135h-45zm0 0" fill="#00c8c8"/><path d="m361 91v301l-45 29.398438-.902344.601562-44.097656-30v-301zm0 0" fill="#ff637b"/><path d="m361 91v301l-45 29.398438v-330.398438zm0 0" fill="#e63950"/><path d="m271 392h90v105h-90zm0 0" fill="#64e1dc"/><path d="m316 392h45v105h-45zm0 0" fill="#00c8c8"/><path d="m481 0v422l-45 29.398438-.902344.601562-44.097656-30v-422zm0 0" fill="#ff637b"/><path d="m481 0v422l-45 29.398438v-451.398438zm0 0" fill="#e63950"/><path d="m391 422h90v75h-90zm0 0" fill="#64e1dc"/><path d="m436 422h45v75h-45zm0 0" fill="#00c8c8"/><path d="m0 482h512v30h-512zm0 0" fill="#537983"/><path d="m256 482h256v30h-256zm0 0" fill="#3e5959"/></svg>